<svg xmlns="http://www.w3.org/2000/svg" width="24" height="24" fill-rule="evenodd" viewBox="0 0 1024 1024">
    <path d="M768 853.3a85.4 85.4 0 1 1 0-170.7 85.4 85.4 0 0 1 0 170.7zm-512-256a85.4 85.4 0 1 1 0-170.7 85.4 85.4 0 0 1 0 170.7zm512-426.6a85.4 85.4 0 1 1 0 170.7 85.4 85.4 0 0 1 0-170.7zm0 426.6c-52.4 0-98.7 24.1-130 61.3L424.3 535.3c1-7.7 2.4-15.3 2.4-23.3 0-4.8-1-9.3-1.4-14l218.2-126A169.5 169.5 0 0 0 768 426.8 170.7 170.7 0 1 0 597.3 256c0 14.2 2.3 27.8 5.5 41L397 416a170.7 170.7 0 1 0-141 266.8c55.5-.1 104.2-27 135.4-68l209.2 120.8A170.7 170.7 0 1 0 768 597.4z" class="rui-77aaa"/>
</svg>
